<svg width="28" height="22" viewBox="0 0 28 22" fill="none" xmlns="http://www.w3.org/2000/svg">
<g clip-path="url(#clip0_1_110)">
<path d="M23.9621 0H4.04526C1.81263 0 0 1.81307 0 4.04623V17.9611C0 20.1943 1.81263 22.0074 4.04526 22.0074H23.9621C26.1947 22.0074 28.0074 20.1943 28.0074 17.9611V4.04623C28.0074 1.81307 26.1947 0 23.9621 0ZM23.9621 1.93099C24.1242 1.93099 24.2863 1.9531 24.4411 1.98995L16.0411 11.527C15.5253 12.1092 14.7811 12.4482 14.0074 12.4482C13.2337 12.4482 12.4895 12.1166 11.9737 11.527L3.56632 1.98995C3.72105 1.9531 3.88316 1.93099 4.04526 1.93099H23.9621ZM26.0695 17.9611C26.0695 19.1256 25.1263 20.069 23.9621 20.069H4.04526C2.88105 20.069 1.93789 19.1256 1.93789 17.9611V4.04623C1.93789 3.76616 1.99684 3.49347 2.09263 3.24288L10.5147 12.802C11.3989 13.8044 12.6663 14.3792 14 14.3792C15.3337 14.3792 16.6011 13.8044 17.4853 12.802L25.9074 3.24288C26.0105 3.4861 26.0621 3.75879 26.0621 4.04623V17.9611H26.0695Z" fill="#0F8B8D"/>
</g>
<defs>
<clipPath id="clip0_1_110">
<rect width="28" height="22" fill="white"/>
</clipPath>
</defs>
</svg>
