<svg width="23" height="30" viewBox="0 0 23 30" fill="none" xmlns="http://www.w3.org/2000/svg">
<g clip-path="url(#clip0_1_112)">
<path d="M11.5 30C11.2176 30 10.943 29.8807 10.7469 29.666C10.3076 29.1888 0 17.8632 0 11.6596C0 5.45599 5.16166 0 11.5 0C17.8383 0 23 5.2333 23 11.6596C23 18.0859 12.6924 29.1808 12.2531 29.666C12.057 29.8807 11.7824 30 11.5 30ZM11.5 2.09173C6.29127 2.09173 2.05525 6.38653 2.05525 11.6676C2.05525 15.7874 8.29945 23.7566 11.5 27.4072C14.7005 23.7566 20.9447 15.7794 20.9447 11.6676C20.9447 6.38653 16.7087 2.09173 11.5 2.09173Z" fill="#0F8B8D"/>
<path d="M11.5 16.3998C8.6446 16.3998 6.32263 14.0456 6.32263 11.1506C6.32263 8.25556 8.6446 5.90137 11.5 5.90137C14.3554 5.90137 16.6773 8.25556 16.6773 11.1506C16.6773 14.0456 14.3554 16.3998 11.5 16.3998ZM11.5 7.98514C9.78204 7.98514 8.37788 9.40084 8.37788 11.1506C8.37788 12.9003 9.7742 14.316 11.5 14.316C13.2258 14.316 14.6221 12.9003 14.6221 11.1506C14.6221 9.40084 13.2258 7.98514 11.5 7.98514Z" fill="#0F8B8D"/>
</g>
<defs>
<clipPath id="clip0_1_112">
<rect width="23" height="30" fill="white"/>
</clipPath>
</defs>
</svg>
