<svg width="36" height="36" viewBox="0 0 36 36" fill="none" xmlns="http://www.w3.org/2000/svg">
<g clip-path="url(#clip0_1_135)">
<path d="M35.4537 17.69C35.4537 7.92 27.5172 0 17.7269 0C7.93651 0 0 7.92 0 17.69C0 26.52 6.48348 33.84 14.9611 35.17V22.81H10.4618V17.7H14.9611V13.8C14.9611 9.37 17.6066 6.92 21.655 6.92C23.5991 6.92 25.6233 7.27 25.6233 7.27V11.62H23.3886C21.1841 11.62 20.5026 12.98 20.5026 14.38V17.7H25.4229L24.6412 22.81H20.5127V35.17C28.9903 33.84 35.4738 26.52 35.4738 17.69H35.4537Z" fill="#FF686B"/>
<path d="M24.6312 22.7999L25.4129 17.6899H20.4926V14.3699C20.4926 12.9699 21.1841 11.6099 23.3786 11.6099H25.6133V7.25991C25.6133 7.25991 23.5891 6.90991 21.645 6.90991C17.5966 6.90991 14.9511 9.35991 14.9511 13.7899V17.6899H10.4517V22.7999H14.9511V35.1599C15.853 35.2999 16.7749 35.3799 17.7168 35.3799C18.6588 35.3799 19.5807 35.3099 20.4826 35.1599V22.7999H24.6112H24.6312Z" fill="white"/>
</g>
<defs>
<clipPath id="clip0_1_135">
<rect width="35.4537" height="35.38" fill="white"/>
</clipPath>
</defs>
</svg>
