<svg width="36" height="36" viewBox="0 0 36 36" fill="none" xmlns="http://www.w3.org/2000/svg">
<g clip-path="url(#clip0_1_129)">
<path d="M17.7269 35.38C27.5171 35.38 35.4537 27.4599 35.4537 17.69C35.4537 7.92008 27.5171 0 17.7269 0C7.93659 0 0 7.92008 0 17.69C0 27.4599 7.93659 35.38 17.7269 35.38Z" fill="#FF686B"/>
<path d="M23.2283 11C22.5569 11 22.0058 11.54 22.0058 12.22C22.0058 12.9 22.5469 13.44 23.2283 13.44C23.9097 13.44 24.4509 12.9 24.4509 12.22C24.4509 11.54 23.9097 11 23.2283 11Z" fill="white"/>
<path d="M17.817 12.5601C14.9912 12.5601 12.6964 14.8501 12.6964 17.6701C12.6964 20.4901 14.9912 22.7801 17.817 22.7801C20.6429 22.7801 22.9377 20.4901 22.9377 17.6701C22.9377 14.8501 20.6429 12.5601 17.817 12.5601ZM17.817 20.9401C16.0133 20.9401 14.5402 19.4701 14.5402 17.6701C14.5402 15.8701 16.0133 14.4001 17.817 14.4001C19.6208 14.4001 21.0939 15.8701 21.0939 17.6701C21.0939 19.4701 19.6208 20.9401 17.817 20.9401Z" fill="white"/>
<path d="M21.8755 28.0401H13.5782C10.1311 28.0401 7.33525 25.24 7.33525 21.8101V13.53C7.33525 10.09 10.1311 7.30005 13.5782 7.30005H21.8755C25.3227 7.30005 28.1185 10.09 28.1185 13.53V21.8101C28.1185 25.25 25.3126 28.0401 21.8755 28.0401ZM13.5782 9.25005C11.2133 9.25005 9.28931 11.17 9.28931 13.53V21.8101C9.28931 24.17 11.2133 26.0901 13.5782 26.0901H21.8755C24.2404 26.0901 26.1644 24.17 26.1644 21.8101V13.53C26.1644 11.17 24.2404 9.25005 21.8755 9.25005H13.5782Z" fill="white"/>
</g>
<defs>
<clipPath id="clip0_1_129">
<rect width="35.4537" height="35.38" fill="white"/>
</clipPath>
</defs>
</svg>
