<svg width="473" height="79" viewBox="0 0 473 79" fill="none" xmlns="http://www.w3.org/2000/svg">
<path d="M134.376 64.4228C127.432 64.4228 122.248 59.5908 122.248 52.8388C122.248 46.0868 127.432 41.2548 134.408 41.2548C138.28 41.2548 141.512 42.6628 143.624 45.2228L140.296 48.2948C138.792 46.5668 136.904 45.6708 134.664 45.6708C130.472 45.6708 127.496 48.6148 127.496 52.8388C127.496 57.0628 130.472 60.0068 134.664 60.0068C136.904 60.0068 138.792 59.1108 140.296 57.3508L143.624 60.4228C141.512 63.0148 138.28 64.4228 134.376 64.4228ZM146.773 64.0388V40.2948H151.765V64.0388H146.773ZM168.75 46.8228H173.742V64.0388H169.006V61.9908C167.694 63.4948 165.774 64.2948 163.662 64.2948C159.342 64.2948 156.302 61.8628 156.302 56.5508V46.8228H161.294V55.8148C161.294 58.6948 162.574 59.9748 164.782 59.9748C167.086 59.9748 168.75 58.5028 168.75 55.3348V46.8228ZM188.543 46.5668C193.375 46.5668 197.119 50.0228 197.119 55.4308C197.119 60.8388 193.375 64.2948 188.543 64.2948C186.239 64.2948 184.383 63.5588 183.135 62.0548V64.0388H178.367V40.2948H183.359V48.6468C184.639 47.2388 186.399 46.5668 188.543 46.5668ZM187.679 60.1988C190.175 60.1988 192.062 58.4068 192.062 55.4308C192.062 52.4548 190.175 50.6628 187.679 50.6628C185.183 50.6628 183.295 52.4548 183.295 55.4308C183.295 58.4068 185.183 60.1988 187.679 60.1988ZM222.067 40.2948H227.059V64.0388H222.291V62.0548C221.043 63.5588 219.219 64.2948 216.915 64.2948C212.051 64.2948 208.307 60.8388 208.307 55.4308C208.307 50.0228 212.051 46.5668 216.915 46.5668C219.027 46.5668 220.819 47.2388 222.067 48.6468V40.2948ZM217.779 60.1988C220.243 60.1988 222.163 58.4068 222.163 55.4308C222.163 52.4548 220.243 50.6628 217.779 50.6628C215.283 50.6628 213.363 52.4548 213.363 55.4308C213.363 58.4068 215.283 60.1988 217.779 60.1988ZM248.543 55.4948C248.543 55.8788 248.479 56.4228 248.447 56.8388H235.423C235.903 58.9828 237.727 60.2948 240.351 60.2948C242.175 60.2948 243.487 59.7508 244.671 58.6308L247.327 61.5108C245.727 63.3348 243.327 64.2948 240.223 64.2948C234.271 64.2948 230.399 60.5508 230.399 55.4308C230.399 50.2788 234.335 46.5668 239.583 46.5668C244.639 46.5668 248.543 49.9588 248.543 55.4948ZM239.615 50.3428C237.343 50.3428 235.711 51.7188 235.359 53.9268H243.839C243.487 51.7508 241.855 50.3428 239.615 50.3428ZM277.729 52.3908C280.225 53.1908 281.825 55.1108 281.825 57.9268C281.825 61.7988 278.753 64.0388 272.865 64.0388H261.281V41.6388H272.225C277.825 41.6388 280.705 43.9748 280.705 47.4628C280.705 49.7028 279.553 51.4308 277.729 52.3908ZM271.585 45.5428H266.433V50.8228H271.585C274.113 50.8228 275.489 49.9268 275.489 48.1668C275.489 46.4068 274.113 45.5428 271.585 45.5428ZM272.481 60.1348C275.169 60.1348 276.609 59.3028 276.609 57.3828C276.609 55.4948 275.169 54.5988 272.481 54.5988H266.433V60.1348H272.481ZM293.59 64.2948C288.118 64.2948 284.118 60.6148 284.118 55.4308C284.118 50.2468 288.118 46.5668 293.59 46.5668C299.062 46.5668 303.03 50.2468 303.03 55.4308C303.03 60.6148 299.062 64.2948 293.59 64.2948ZM293.59 60.1988C296.086 60.1988 297.974 58.4068 297.974 55.4308C297.974 52.4548 296.086 50.6628 293.59 50.6628C291.094 50.6628 289.174 52.4548 289.174 55.4308C289.174 58.4068 291.094 60.1988 293.59 60.1988ZM311.135 49.0948C312.351 47.4308 314.399 46.5668 317.055 46.5668V51.1748C316.639 51.1428 316.319 51.1108 315.935 51.1108C313.183 51.1108 311.359 52.6148 311.359 55.9108V64.0388H306.367V46.8228H311.135V49.0948ZM332.411 40.2948H337.403V64.0388H332.635V62.0548C331.387 63.5588 329.563 64.2948 327.259 64.2948C322.395 64.2948 318.651 60.8388 318.651 55.4308C318.651 50.0228 322.395 46.5668 327.259 46.5668C329.371 46.5668 331.163 47.2388 332.411 48.6468V40.2948ZM328.123 60.1988C330.587 60.1988 332.507 58.4068 332.507 55.4308C332.507 52.4548 330.587 50.6628 328.123 50.6628C325.627 50.6628 323.707 52.4548 323.707 55.4308C323.707 58.4068 325.627 60.1988 328.123 60.1988ZM358.887 55.4948C358.887 55.8788 358.823 56.4228 358.791 56.8388H345.767C346.247 58.9828 348.071 60.2948 350.695 60.2948C352.519 60.2948 353.831 59.7508 355.015 58.6308L357.671 61.5108C356.071 63.3348 353.671 64.2948 350.567 64.2948C344.615 64.2948 340.743 60.5508 340.743 55.4308C340.743 50.2788 344.679 46.5668 349.927 46.5668C354.983 46.5668 358.887 49.9588 358.887 55.4948ZM349.959 50.3428C347.687 50.3428 346.055 51.7188 345.703 53.9268H354.183C353.831 51.7508 352.199 50.3428 349.959 50.3428ZM368.686 46.5668C373.934 46.5668 376.974 48.9988 376.974 54.2148V64.0388H372.302V61.8948C371.374 63.4628 369.582 64.2948 367.054 64.2948C363.022 64.2948 360.622 62.0548 360.622 59.0788C360.622 56.0388 362.766 53.9268 368.014 53.9268H371.982C371.982 51.7828 370.702 50.5348 368.014 50.5348C366.19 50.5348 364.302 51.1428 363.054 52.1348L361.262 48.6468C363.15 47.3028 365.934 46.5668 368.686 46.5668ZM368.302 60.9348C369.966 60.9348 371.406 60.1668 371.982 58.5988V56.8388H368.558C366.222 56.8388 365.486 57.7028 365.486 58.8548C365.486 60.1028 366.542 60.9348 368.302 60.9348ZM393.844 46.8228H398.836V64.0388H394.1V61.9908C392.788 63.4948 390.868 64.2948 388.756 64.2948C384.436 64.2948 381.396 61.8628 381.396 56.5508V46.8228H386.388V55.8148C386.388 58.6948 387.668 59.9748 389.876 59.9748C392.18 59.9748 393.844 58.5028 393.844 55.3348V46.8228ZM420.068 64.0388H414.404L410.628 58.7588L406.724 64.0388H401.284L407.908 55.3668L401.508 46.8228H407.108L410.756 51.8468L414.5 46.8228H419.812L413.412 55.2388L420.068 64.0388Z" fill="#0F8B8D"/>
<path d="M40.319 63.4012L51.2374 51.9344C38.383 41.7363 19.0678 42.9545 7.81659 54.7728C2.19419 60.6789 -0.359407 68.1279 0.0405927 75.4309C1.10299 73.6737 1.92539 69.8137 5.81019 65.5159C15.8966 54.3528 29.6662 56.0118 40.3222 63.4012H40.319Z" fill="url(#paint0_linear_610_742)"/>
<path d="M40.319 63.4012L47.8902 60.2292C35.0358 50.0312 20.2646 47.7736 8.14621 58.8681C3.01022 63.568 0.274215 70.4422 0.0374146 75.431C1.09981 73.6737 1.92221 69.8137 5.80701 65.5159C15.8934 54.3529 29.663 56.0118 40.319 63.4012Z" fill="url(#paint1_linear_610_742)"/>
<path d="M60.543 27.6395C59.4134 27.8182 59.0102 26.2486 57.8422 26.4124C46.7446 27.9523 33.839 22.2665 33.839 11.6247C33.839 8.51524 34.9974 4.22039 38.5718 0C32.6038 3.77363 28.6838 10.1444 28.6838 17.3641C28.6838 28.953 38.7766 38.3469 51.2278 38.3469C54.5526 38.3469 57.7046 37.6737 60.5462 36.4705V27.6395H60.543Z" fill="url(#paint2_linear_610_742)"/>
<path d="M60.543 27.6395C59.4134 27.8182 59.2534 32.7207 58.0822 32.8815C46.9846 34.4213 31.6374 27.7616 31.9542 13.9568C32.0246 10.8503 34.4054 3.39239 38.5654 0C32.5974 3.77363 28.6774 10.1444 28.6774 17.3641C28.6774 28.953 38.7702 38.3469 51.2214 38.3469C54.5462 38.3469 57.6982 37.6737 60.5398 36.4705V27.6395H60.543Z" fill="url(#paint3_linear_610_742)"/>
<path d="M63.9574 72.5895C54.1782 68.0504 50.2006 56.9946 55.0774 47.8897C59.9542 38.7877 71.8326 35.0855 81.6118 39.6246C88.3318 42.743 92.3126 48.9411 92.5622 55.4667C94.0182 44.6313 88.1206 33.641 77.023 28.4914C62.9654 21.9687 45.887 27.2881 38.8758 40.3722C31.8678 53.4563 37.583 69.352 51.6406 75.8777C62.7382 81.0273 75.7142 78.7965 84.1366 71.1927C78.3862 74.9365 70.6742 75.7079 63.9542 72.5895H63.9574Z" fill="url(#paint4_linear_610_742)"/>
<path d="M81.7878 39.0111C89.4294 43.4787 92.1334 48.5896 92.6422 54.7638C93.7526 44.1578 87.8774 33.5338 77.023 28.4974C62.9654 21.9747 45.887 27.2941 38.8758 40.3782C37.7942 42.3946 37.0166 44.4794 36.527 46.5881C46.0726 36.1757 65.775 29.653 81.7878 39.0141V39.0111Z" fill="url(#paint5_linear_610_742)"/>
<path d="M72.975 15.8719C72.975 20.6225 68.8374 24.4765 63.7302 24.4765C58.623 24.4765 54.4854 20.6254 54.4854 15.8719C54.4854 11.1184 58.623 7.26733 63.7302 7.26733C68.8374 7.26733 72.975 11.1184 72.975 15.8719Z" fill="url(#paint6_linear_610_742)"/>
<path d="M63.7302 7.26733C63.4518 7.26733 63.1766 7.28222 62.9014 7.30307C61.7558 8.73568 61.0774 10.5108 61.0774 12.4349C61.0774 17.1884 65.215 21.0394 70.3222 21.0394C70.6006 21.0394 70.8758 21.0275 71.151 21.0037C72.2966 19.5711 72.975 17.796 72.975 15.8719C72.975 11.1184 68.8374 7.26733 63.7302 7.26733Z" fill="url(#paint7_linear_610_742)"/>
<defs>
<linearGradient id="paint0_linear_610_742" x1="10.9067" y1="51.5286" x2="32.2662" y2="71.8605" gradientUnits="userSpaceOnUse">
<stop stop-color="#0F8B8D"/>
<stop offset="1" stop-color="#A5FFD6"/>
</linearGradient>
<linearGradient id="paint1_linear_610_742" x1="10.2849" y1="56.543" x2="31.8552" y2="77.0756" gradientUnits="userSpaceOnUse">
<stop stop-color="#0F8B8D"/>
<stop offset="0.22" stop-color="#0F8B8D"/>
<stop offset="1" stop-color="#A5FFD6"/>
</linearGradient>
<linearGradient id="paint2_linear_610_742" x1="28.6806" y1="19.1719" x2="60.543" y2="19.1719" gradientUnits="userSpaceOnUse">
<stop stop-color="#0F8B8D"/>
<stop offset="1" stop-color="#A5FFD6"/>
</linearGradient>
<linearGradient id="paint3_linear_610_742" x1="28.6806" y1="19.1719" x2="60.543" y2="19.1719" gradientUnits="userSpaceOnUse">
<stop stop-color="#0F8B8D"/>
<stop offset="1" stop-color="#0F8B8D"/>
</linearGradient>
<linearGradient id="paint4_linear_610_742" x1="47.9062" y1="78.2008" x2="74.0594" y2="28.3672" gradientUnits="userSpaceOnUse">
<stop stop-color="#FF686B"/>
<stop offset="0.39" stop-color="#FF8185"/>
<stop offset="0.74" stop-color="#FF9196"/>
<stop offset="1" stop-color="#FF979C"/>
</linearGradient>
<linearGradient id="paint5_linear_610_742" x1="36.527" y1="40.2352" x2="92.7766" y2="40.2352" gradientUnits="userSpaceOnUse">
<stop stop-color="#FF686B"/>
<stop offset="0.46" stop-color="#FF7F83"/>
<stop offset="1" stop-color="#FF979C"/>
</linearGradient>
<linearGradient id="paint6_linear_610_742" x1="54.4854" y1="15.8719" x2="72.975" y2="15.8719" gradientUnits="userSpaceOnUse">
<stop stop-color="#FF686B"/>
<stop offset="0.38" stop-color="#FF7B7F"/>
<stop offset="1" stop-color="#FF979C"/>
</linearGradient>
<linearGradient id="paint7_linear_610_742" x1="60.1206" y1="5.35818" x2="72.4918" y2="23.548" gradientUnits="userSpaceOnUse">
<stop stop-color="#FF979C"/>
<stop offset="0.31" stop-color="#FF9398"/>
<stop offset="0.58" stop-color="#FF898E"/>
<stop offset="0.82" stop-color="#FF797C"/>
<stop offset="1" stop-color="#FF686B"/>
</linearGradient>
</defs>
</svg>
