<svg width="19" height="27" viewBox="0 0 19 27" fill="none" xmlns="http://www.w3.org/2000/svg">
<g clip-path="url(#clip0_1_106)">
<path d="M14.9836 0H4.01638C1.80313 0 0 1.79297 0 3.99375V22.9992C0 25.2 1.80313 26.993 4.01638 26.993H14.9766C17.1898 26.993 18.9929 25.2 18.9929 22.9992V3.99375C18.9929 1.79297 17.1898 0 14.9766 0H14.9836ZM4.01638 1.84219H14.9766C16.1716 1.84219 17.1403 2.80547 17.1403 3.99375V19.2234H1.85262V3.99375C1.85262 2.80547 2.82136 1.84219 4.01638 1.84219ZM14.9766 25.1578H4.01638C2.82136 25.1578 1.85262 24.1945 1.85262 23.0063V21.0727H17.1474V23.0063C17.1474 24.1945 16.1786 25.1578 14.9836 25.1578H14.9766Z" fill="#0F8B8D"/>
<path d="M9.24899 4.5C9.65912 4.5 9.99146 4.16953 9.99146 3.76172C9.99146 3.35391 9.65912 3.02344 9.24899 3.02344C8.83887 3.02344 8.50653 3.35391 8.50653 3.76172C8.50653 4.16953 8.83887 4.5 9.24899 4.5Z" fill="#0F8B8D"/>
<path d="M9.24899 22.2188C8.83887 22.2188 8.50653 22.5492 8.50653 22.957C8.50653 23.3648 8.83887 23.6953 9.24899 23.6953C9.65912 23.6953 9.99146 23.3648 9.99146 22.957C9.99146 22.5492 9.65912 22.2188 9.24899 22.2188Z" fill="#0F8B8D"/>
</g>
<defs>
<clipPath id="clip0_1_106">
<rect width="19" height="27" fill="white"/>
</clipPath>
</defs>
</svg>
